<svg id="Слой_1" data-name="Слой 1" xmlns="http://www.w3.org/2000/svg" viewBox="0 0 841.89 113.28"><defs><style>.cls-1{fill:#0af;}</style></defs><title>BINET.__.PRO_final</title><path d="M3.21,90.34V3.9h52c18.39,0,27.19,11.15,27.19,22.15A19.83,19.83,0,0,1,67.66,45.71,21.19,21.19,0,0,1,84.32,66.76c0,12.58-9.13,23.58-27.35,23.58ZM57,30.46a6,6,0,0,0-6.29-6H28.36V36.27H50.68c3.77,0,6.29-2.51,6.29-5.81m1.88,32.85c0-3.61-2.83-6.6-7.23-6.6H28.36v13H51.62c4.4,0,7.23-2.68,7.23-6.44"/><rect x="93.65" y="3.9" width="25.16" height="86.44"/><polygon points="194.07 90.34 159.18 42.72 159.18 90.34 134.19 90.34 134.19 3.9 161.38 3.9 194.7 49.32 194.7 3.9 219.69 3.9 219.69 90.34 194.07 90.34"/><polygon points="233.71 90.34 233.71 3.9 301.59 3.9 301.59 24.95 258.84 24.95 258.84 35.96 300.65 35.96 300.65 57.02 258.84 57.02 258.84 69.28 301.59 69.28 301.59 90.34 233.71 90.34"/><polygon points="330.76 90.34 330.76 25.59 307.34 25.59 307.34 3.9 379.32 3.9 379.32 25.59 355.9 25.59 355.9 90.34 330.76 90.34"/><path d="M582.15,90.34V3.9h47c20,0,31.42,13.52,31.42,29.39S650,62.68,629.15,62.68H607.28V90.34Zm53-57c0-4.55-3.45-7.7-9-7.7H607.28V41h18.87c5.5,0,9-3.3,9-7.7"/><path d="M714.84,90.34,700.38,62.68h-11V90.34H664.22V3.9h47c19.8,0,31.43,13.36,31.43,29.39S732.6,57.5,724.42,60l18.71,30.33Zm2.35-57c0-4.55-3.46-7.7-9-7.7H689.36V41h18.87c5.5,0,9-3.3,9-7.7"/><path d="M745.38,47.13C745.38,20.87,765,2,792.69,2S840,20.87,840,47.13s-19.65,45.1-47.31,45.1-47.31-18.86-47.31-45.1m69.15,0c0-13.06-8.48-23.11-21.84-23.11s-22,10.05-22,23.11,8.64,23.09,22,23.09,21.84-10,21.84-23.09"/><path class="cls-1" d="M368.1,80.52a11.71,11.71,0,1,1,11.7,11.71,11.86,11.86,0,0,1-11.7-11.71"/><rect class="cls-1" x="390.64" y="96.42" width="156.72" height="12.29"/><path class="cls-1" d="M546.49,80.52A11.71,11.71,0,1,1,558.2,92.23a11.85,11.85,0,0,1-11.71-11.71"/></svg>