<?xml version="1.0" encoding="utf-8"?>
<!-- Generator: Adobe Illustrator 22.1.0, SVG Export Plug-In . SVG Version: 6.00 Build 0)  -->
<svg version="1.1" id="Layer_1" xmlns="http://www.w3.org/2000/svg" xmlns:xlink="http://www.w3.org/1999/xlink" x="0px" y="0px"
	 viewBox="0 0 364.8 51.5" style="enable-background:new 0 0 364.8 51.5;" xml:space="preserve">
<style type="text/css">
	.st0{fill:#FFFFFF;}
	.st1{fill:#00AAFF;}
</style>
<path class="st0" d="M3.1,40.9V3.8h22.3c7.9,0,11.7,4.8,11.7,9.5c0,4.4-2.8,7.4-6.3,8.4c4.1,0.9,7.2,4.5,7.2,9
	c0,5.4-3.9,10.1-11.7,10.1H3.1z M26.2,15.2c0-1.4-1.1-2.6-2.7-2.6h-9.6v5.1h9.6C25.1,17.7,26.2,16.6,26.2,15.2z M27,29.3
	c0-1.5-1.2-2.8-3.1-2.8h-10v5.6h10C25.8,32.1,27,30.9,27,29.3z"/>
<path class="st0" d="M41.9,40.9V3.8h10.8v37.1H41.9z"/>
<path class="st0" d="M85,40.9l-15-20.5v20.5H59.3V3.8H71l14.3,19.5V3.8H96v37.1H85z"/>
<path class="st0" d="M102.1,40.9V3.8h29.2v9h-18.4v4.7h18v9h-18v5.3h18.4v9H102.1z"/>
<path class="st0" d="M143.7,40.9V13.1h-10.1V3.8h30.9v9.3h-10.1v27.8H143.7z"/>
<path class="st0" d="M251.7,40.9V3.8h20.2c8.6,0,13.5,5.8,13.5,12.6c0,6.8-4.5,12.6-13.5,12.6h-9.4v11.9H251.7z M274.4,16.4
	c0-2-1.5-3.3-3.8-3.3h-8.1v6.6h8.1C273,19.7,274.4,18.3,274.4,16.4z"/>
<path class="st0" d="M308.7,40.9l-6.2-11.9h-4.7v11.9H287V3.8h20.2c8.5,0,13.5,5.7,13.5,12.6c0,6.9-4.3,10.4-7.8,11.5l8,13H308.7z
	 M309.7,16.4c0-2-1.5-3.3-3.8-3.3h-8.1v6.6h8.1C308.2,19.7,309.7,18.3,309.7,16.4z"/>
<path class="st0" d="M321.8,22.4c0-11.3,8.4-19.4,20.3-19.4c11.9,0,20.3,8.1,20.3,19.4c0,11.3-8.4,19.4-20.3,19.4
	C330.2,41.7,321.8,33.6,321.8,22.4z M351.5,22.4c0-5.6-3.6-9.9-9.4-9.9c-5.7,0-9.5,4.3-9.5,9.9c0,5.6,3.7,9.9,9.5,9.9
	C347.9,32.3,351.5,28,351.5,22.4z"/>
<path class="st1" d="M159.8,36.7c0-2.7,2.3-5,5-5c2.7,0,5,2.3,5,5c0,2.7-2.3,5-5,5C162.1,41.7,159.8,39.4,159.8,36.7z"/>
<rect x="169.5" y="43.5" class="st1" width="67.3" height="5.3"/>
<path class="st1" d="M236.4,36.7c0-2.7,2.3-5,5-5c2.7,0,5,2.3,5,5c0,2.7-2.3,5-5,5C238.7,41.7,236.4,39.4,236.4,36.7z"/>
</svg>
